<?xml version="1.0" encoding="UTF-8"?>
<svg xmlns="http://www.w3.org/2000/svg" xmlns:xlink="http://www.w3.org/1999/xlink" width="32px" height="32px" viewBox="0 0 32 32" version="1.1">
<g id="surface1">
<path style=" stroke:none;fill-rule:nonzero;fill:rgb(98.823529%,99.215686%,99.215686%);fill-opacity:1;" d="M -0.140625 -0.140625 C 10.527344 -0.140625 21.195312 -0.140625 31.859375 -0.140625 C 31.859375 10.527344 31.859375 21.195312 31.859375 31.859375 C 21.195312 31.859375 10.527344 31.859375 -0.140625 31.859375 C -0.140625 21.195312 -0.140625 10.527344 -0.140625 -0.140625 Z M -0.140625 -0.140625 "/>
<path style=" stroke:none;fill-rule:nonzero;fill:rgb(3.921569%,15.686275%,48.235294%);fill-opacity:1;" d="M 13.773438 1.53125 C 21.984375 0.921875 27.226562 4.539062 29.496094 12.382812 C 30.246094 20.898438 26.492188 26.140625 18.226562 28.105469 C 9.851562 28.722656 4.707031 24.96875 2.78125 16.835938 C 2.328125 8.71875 5.992188 3.617188 13.773438 1.53125 Z M 13.773438 1.53125 "/>
<path style=" stroke:none;fill-rule:nonzero;fill:rgb(97.254902%,97.254902%,98.039216%);fill-opacity:1;" d="M 23.511719 11.824219 C 24.574219 14.734375 25.410156 17.703125 26.015625 20.730469 C 24.90625 21.007812 23.792969 21.285156 22.679688 21.566406 C 22.679688 21.0625 22.542969 20.597656 22.261719 20.175781 C 19.820312 23.28125 16.714844 24.164062 12.9375 22.816406 C 8.5625 20.417969 6.847656 16.753906 7.792969 11.824219 C 10.515625 6.1875 14.738281 4.566406 20.453125 6.957031 C 20.78125 7.238281 21.0625 7.566406 21.285156 7.929688 C 20.691406 8.851562 20.042969 9.730469 19.339844 10.574219 C 18.714844 10.34375 18.066406 10.066406 17.390625 9.738281 C 12.71875 9.3125 10.910156 11.398438 11.964844 16 C 13.125 19.105469 15.304688 20.175781 18.503906 19.199219 C 19.863281 18.644531 20.652344 17.671875 20.871094 16.277344 C 19.941406 16.707031 18.96875 16.984375 17.949219 17.113281 C 17.757812 16.121094 17.476562 15.144531 17.113281 14.191406 C 17.207031 14.050781 17.296875 13.914062 17.390625 13.773438 C 19.441406 13.125 21.480469 12.472656 23.511719 11.824219 Z M 23.511719 11.824219 "/>
<path style=" stroke:none;fill-rule:nonzero;fill:rgb(91.764706%,92.54902%,95.294118%);fill-opacity:1;" d="M 25.460938 7.652344 C 27.035156 7.601562 27.40625 8.207031 26.574219 9.460938 C 25.203125 9.578125 24.832031 8.976562 25.460938 7.652344 Z M 25.460938 7.652344 "/>
<path style=" stroke:none;fill-rule:nonzero;fill:rgb(87.058824%,88.235294%,92.54902%);fill-opacity:1;" d="M 24.347656 10.992188 C 24.125 10.5625 24.03125 10.097656 24.070312 9.601562 C 25.785156 9.785156 25.878906 10.246094 24.347656 10.992188 Z M 24.347656 10.992188 "/>
<path style=" stroke:none;fill-rule:nonzero;fill:rgb(84.313725%,85.490196%,90.588235%);fill-opacity:1;" d="M 24.347656 10.992188 C 24.347656 11.546875 24.070312 11.824219 23.511719 11.824219 C 23.511719 11.546875 23.511719 11.269531 23.511719 10.992188 C 23.792969 10.992188 24.070312 10.992188 24.347656 10.992188 Z M 24.347656 10.992188 "/>
</g>
</svg>
